<svg width="29" height="29" viewBox="0 0 29 29" fill="none" xmlns="http://www.w3.org/2000/svg">
<path d="M1.03571 12.4286H27.9643C28.239 12.4286 28.5024 12.3195 28.6966 12.1252C28.8909 11.931 29 11.6675 29 11.3929V9.32143C29 9.04674 28.8909 8.7833 28.6966 8.58907C28.5024 8.39483 28.239 8.28571 27.9643 8.28571H1.03571C0.761026 8.28571 0.497588 8.39483 0.303354 8.58907C0.10912 8.7833 0 9.04674 0 9.32143L0 11.3929C0 11.6675 0.10912 11.931 0.303354 12.1252C0.497588 12.3195 0.761026 12.4286 1.03571 12.4286ZM27.9643 24.8571H1.03571C0.761026 24.8571 0.497588 24.9663 0.303354 25.1605C0.10912 25.3547 0 25.6182 0 25.8929L0 27.9643C0 28.239 0.10912 28.5024 0.303354 28.6966C0.497588 28.8909 0.761026 29 1.03571 29H27.9643C28.239 29 28.5024 28.8909 28.6966 28.6966C28.8909 28.5024 29 28.239 29 27.9643V25.8929C29 25.6182 28.8909 25.3547 28.6966 25.1605C28.5024 24.9663 28.239 24.8571 27.9643 24.8571ZM28.1695 2.52687e-07H11.1877C11.0786 -8.4873e-05 10.9705 0.0213388 10.8697 0.0630458C10.7689 0.104753 10.6773 0.165925 10.6002 0.243062C10.5231 0.320199 10.4619 0.411788 10.4202 0.512589C10.3785 0.61339 10.3571 0.721425 10.3571 0.830514V3.31234C10.3571 3.42143 10.3785 3.52947 10.4202 3.63027C10.4619 3.73107 10.5231 3.82266 10.6002 3.8998C10.6773 3.97693 10.7689 4.0381 10.8697 4.07981C10.9705 4.12152 11.0786 4.14294 11.1877 4.14286H28.1695C28.2786 4.14294 28.3866 4.12152 28.4874 4.07981C28.5882 4.0381 28.6798 3.97693 28.7569 3.8998C28.8341 3.82266 28.8952 3.73107 28.937 3.63027C28.9787 3.52947 29.0001 3.42143 29 3.31234V0.830514C29.0001 0.721425 28.9787 0.61339 28.937 0.512589C28.8952 0.411788 28.8341 0.320199 28.7569 0.243062C28.6798 0.165925 28.5882 0.104753 28.4874 0.0630458C28.3866 0.0213388 28.2786 -8.4873e-05 28.1695 2.52687e-07ZM28.1695 16.5714H11.1877C11.0786 16.5713 10.9705 16.5928 10.8697 16.6345C10.7689 16.6762 10.6773 16.7374 10.6002 16.8145C10.5231 16.8916 10.4619 16.9832 10.4202 17.084C10.3785 17.1848 10.3571 17.2929 10.3571 17.4019V19.8838C10.3571 19.9929 10.3785 20.1009 10.4202 20.2017C10.4619 20.3025 10.5231 20.3941 10.6002 20.4712C10.6773 20.5484 10.7689 20.6095 10.8697 20.6512C10.9705 20.6929 11.0786 20.7144 11.1877 20.7143H28.1695C28.2786 20.7144 28.3866 20.6929 28.4874 20.6512C28.5882 20.6095 28.6798 20.5484 28.7569 20.4712C28.8341 20.3941 28.8952 20.3025 28.937 20.2017C28.9787 20.1009 29.0001 19.9929 29 19.8838V17.4019C29.0001 17.2929 28.9787 17.1848 28.937 17.084C28.8952 16.9832 28.8341 16.8916 28.7569 16.8145C28.6798 16.7374 28.5882 16.6762 28.4874 16.6345C28.3866 16.5928 28.2786 16.5713 28.1695 16.5714Z" fill="black"/>
</svg>
